<svg width="24" height="24" viewBox="0 0 24 24" fill="none" xmlns="http://www.w3.org/2000/svg">
<path d="M12 2.07593L12.455 2.30893C14.2158 3.2102 15.7276 4.53106 16.857 6.15493C17.7983 5.70783 18.7941 5.38609 19.819 5.19793L21 4.97993V12.9999C21 15.3869 20.0518 17.6761 18.364 19.3639C16.6761 21.0517 14.3869 21.9999 12 21.9999C9.61305 21.9999 7.32387 21.0517 5.63604 19.3639C3.94821 17.6761 3 15.3869 3 12.9999V4.97993L4.18 5.19793C5.20526 5.386 6.20143 5.70775 7.143 6.15493C8.27243 4.53106 9.78425 3.2102 11.545 2.30893L12 2.07593ZM8.878 7.16493C10.109 8.0277 11.1679 9.11301 12 10.3649C12.8322 9.1131 13.8911 8.02781 15.122 7.16493C14.2927 6.0124 13.2287 5.04859 12 4.33693C10.7713 5.04861 9.70734 6.01242 8.878 7.16493ZM10.899 12.4339C10.0167 10.7201 8.6601 9.29619 6.991 8.33193C6.36134 7.96831 5.69368 7.67489 5 7.45693V12.9999C5 16.2899 7.27 19.0499 10.329 19.7999C10.11 18.8827 9.99956 17.9429 10 16.9999C10 15.3829 10.319 13.8409 10.899 12.4339ZM12.454 19.9849C14.2281 19.8696 15.8919 19.0836 17.1076 17.7863C18.3234 16.489 18.9999 14.7778 19 12.9999V7.45693C16.9691 8.09495 15.195 9.36465 13.9359 11.0811C12.6768 12.7976 11.9986 14.8712 12 16.9999C12 18.0409 12.159 19.0439 12.453 19.9849" fill="black"/>
</svg>
