<svg width="23" height="23" viewBox="0 0 23 23" fill="none" xmlns="http://www.w3.org/2000/svg">
<path d="M18.2563 4.70542C17.3777 3.81793 16.3312 3.11427 15.1778 2.63547C14.0244 2.15667 12.7872 1.91232 11.5384 1.91667C6.30585 1.91667 2.04127 6.18125 2.04127 11.4138C2.04127 13.0908 2.4821 14.72 3.30627 16.1575L1.9646 21.0833L6.99585 19.7608C8.38543 20.5179 9.94752 20.9204 11.5384 20.9204C16.7709 20.9204 21.0354 16.6558 21.0354 11.4233C21.0354 8.88375 20.0484 6.4975 18.2563 4.70542ZM11.5384 19.3104C10.12 19.3104 8.73043 18.9271 7.51335 18.2083L7.22585 18.0358L4.23585 18.8217L5.03127 15.9083L4.8396 15.6113C4.05161 14.3529 3.63319 12.8984 3.6321 11.4138C3.6321 7.06292 7.17793 3.51708 11.5288 3.51708C13.6371 3.51708 15.6209 4.34125 17.1063 5.83625C17.8418 6.56838 18.4246 7.43922 18.8211 8.39828C19.2176 9.35735 19.4197 10.3856 19.4159 11.4233C19.435 15.7742 15.8892 19.3104 11.5384 19.3104ZM15.87 13.4071C15.6304 13.2921 14.4613 12.7171 14.2504 12.6308C14.03 12.5542 13.8767 12.5158 13.7138 12.7458C13.5508 12.9854 13.1004 13.5221 12.9663 13.6754C12.8321 13.8383 12.6883 13.8575 12.4488 13.7329C12.2092 13.6179 11.4425 13.3592 10.5417 12.5542C9.83252 11.9217 9.36293 11.1454 9.21918 10.9058C9.08502 10.6663 9.20002 10.5417 9.3246 10.4171C9.43002 10.3117 9.56418 10.1392 9.67918 10.005C9.79418 9.87083 9.8421 9.76542 9.91877 9.61208C9.99543 9.44917 9.9571 9.315 9.8996 9.2C9.8421 9.085 9.36293 7.91583 9.17127 7.43667C8.9796 6.97667 8.77835 7.03417 8.6346 7.02458H8.1746C8.01168 7.02458 7.76252 7.08208 7.5421 7.32167C7.33127 7.56125 6.71793 8.13625 6.71793 9.30542C6.71793 10.4746 7.57085 11.6054 7.68585 11.7588C7.80085 11.9217 9.36293 14.3175 11.7396 15.3429C12.305 15.5921 12.7458 15.7358 13.0908 15.8413C13.6563 16.0233 14.1738 15.9946 14.5858 15.9371C15.0458 15.87 15.9946 15.3621 16.1863 14.8063C16.3875 14.2504 16.3875 13.7808 16.3204 13.6754C16.2534 13.57 16.1096 13.5221 15.87 13.4071Z" fill="white"/>
</svg>
