<svg width="18" height="18" viewBox="0 0 18 18" fill="none" xmlns="http://www.w3.org/2000/svg">
<path d="M14.2875 3.68254C13.5999 2.98799 12.7809 2.4373 11.8782 2.06258C10.9756 1.68787 10.0073 1.49664 9.03001 1.50004C4.93501 1.50004 1.59751 4.83754 1.59751 8.93254C1.59751 10.245 1.94251 11.52 2.58751 12.645L1.53751 16.5L5.47501 15.465C6.56251 16.0575 7.78501 16.3725 9.03001 16.3725C13.125 16.3725 16.4625 13.035 16.4625 8.94004C16.4625 6.95254 15.69 5.08504 14.2875 3.68254ZM9.03001 15.1125C7.92001 15.1125 6.83251 14.8125 5.88001 14.25L5.65501 14.115L3.31501 14.73L3.93751 12.45L3.78751 12.2175C3.17082 11.2328 2.84336 10.0945 2.84251 8.93254C2.84251 5.52754 5.61751 2.75254 9.02251 2.75254C10.6725 2.75254 12.225 3.39754 13.3875 4.56754C13.9631 5.14052 14.4193 5.82204 14.7296 6.57261C15.0398 7.32319 15.198 8.12788 15.195 8.94004C15.21 12.345 12.435 15.1125 9.03001 15.1125ZM12.42 10.4925C12.2325 10.4025 11.3175 9.95254 11.1525 9.88504C10.98 9.82504 10.86 9.79504 10.7325 9.97504C10.605 10.1625 10.2525 10.5825 10.1475 10.7025C10.0425 10.83 9.93001 10.845 9.74251 10.7475C9.55501 10.6575 8.95501 10.455 8.25001 9.82504C7.69501 9.33004 7.32751 8.72254 7.21501 8.53504C7.11001 8.34754 7.20001 8.25004 7.29751 8.15254C7.38001 8.07004 7.48501 7.93504 7.57501 7.83004C7.66501 7.72504 7.70251 7.64254 7.76251 7.52254C7.82251 7.39504 7.79251 7.29004 7.74751 7.20005C7.70251 7.11004 7.32751 6.19504 7.17751 5.82004C7.02751 5.46004 6.87001 5.50504 6.75751 5.49754H6.39751C6.27001 5.49754 6.07501 5.54254 5.90251 5.73004C5.73751 5.91754 5.25751 6.36754 5.25751 7.28254C5.25751 8.19754 5.92501 9.08254 6.01501 9.20254C6.10501 9.33004 7.32751 11.205 9.18751 12.0075C9.63001 12.2025 9.97501 12.315 10.245 12.3975C10.6875 12.54 11.0925 12.5175 11.415 12.4725C11.775 12.42 12.5175 12.0225 12.6675 11.5875C12.825 11.1525 12.825 10.785 12.7725 10.7025C12.72 10.62 12.6075 10.5825 12.42 10.4925Z" fill="black"/>
</svg>
